<svg width="16" height="16" viewBox="0 0 16 16" fill="none" xmlns="http://www.w3.org/2000/svg">
  <!-- Brain/AI symbol -->
  <path d="M8 2C5.5 2 3.5 4 3.5 6.5C3.5 7.5 3.8 8.4 4.3 9.1L4 10L5 9.7C5.7 10.2 6.6 10.5 7.5 10.5H8.5C9.4 10.5 10.3 10.2 11 9.7L12 10L11.7 9.1C12.2 8.4 12.5 7.5 12.5 6.5C12.5 4 10.5 2 8 2Z" stroke="currentColor" stroke-width="1.2" fill="none"/>
  <!-- Neural connections -->
  <circle cx="6" cy="5.5" r="0.8" fill="currentColor"/>
  <circle cx="10" cy="5.5" r="0.8" fill="currentColor"/>
  <circle cx="8" cy="7.5" r="0.8" fill="currentColor"/>
  <line x1="6" y1="5.5" x2="8" y2="7.5" stroke="currentColor" stroke-width="0.8"/>
  <line x1="10" y1="5.5" x2="8" y2="7.5" stroke="currentColor" stroke-width="0.8"/>
  <!-- Sparkle effect -->
  <path d="M13 3L13.5 4L14 3L13.5 2L13 3Z" fill="currentColor"/>
  <path d="M2 12L2.5 13L3 12L2.5 11L2 12Z" fill="currentColor"/>
</svg>